<?xml version="1.0" encoding="utf-8"?>
<!-- Generator: Adobe Illustrator 23.0.1, SVG Export Plug-In . SVG Version: 6.00 Build 0)  -->
<svg version="1.1" id="Layer_1" xmlns="http://www.w3.org/2000/svg" xmlns:xlink="http://www.w3.org/1999/xlink" x="0px" y="0px"
	 viewBox="0 0 100 25" style="enable-background:new 0 0 100 25;" xml:space="preserve">
<style type="text/css">
	.st0{fill:none;}
	.st1{fill:#1E2324;}
	.st2{fill:#FFFFFF;}
	.st3{fill:#F6BC47;}
	.st4{fill:#999999;}
	.st5{fill:#BFFCB1;}
</style>
<rect class="st0" width="100" height="25"/>
<g>
	<g>
		<path class="st1" d="M18.3,15.23c-0.24,0-0.35-0.13-0.37-0.37l-0.74-9.1h-2.76l-2.19,4.74c-0.3,0.76-0.7,1.71-0.7,1.71h-0.04
			c0,0-0.3-0.97-0.6-1.73L8.99,5.76L5.88,5.75l-0.76,9.12c-0.02,0.23-0.13,0.37-0.37,0.37H4.34v2.51h2.48
			c0.85,0,1.16-0.37,1.22-1.22l0.26-3.65l1.91,4.49h2.56l1.98-4.62l0.26,3.78c0.07,0.85,0.37,1.22,1.22,1.22h2.48v-2.51H18.3z
			 M14.6,11.22l-2.28,5.47h-1.64l-2.21-5.38l-1.82-4.6l1.3,0.03c0.6,0,0.81,0.32,1.07,1.04l1.38,3.56l1.11,3.07l1.25-3.06l1.6-3.59
			c0.26-0.73,0.46-1.04,1.05-1.04l1.02-0.02L14.6,11.22z"/>
		<path class="st1" d="M20.34,11.95c0-0.23-0.13-0.37-0.37-0.37h-0.63V9.17h2.67c0.85,0,1.22,0.37,1.22,1.22v4.58
			c0,0.23,0.13,0.37,0.37,0.37h0.63v2.42h-2.67c-0.85,0-1.22-0.37-1.22-1.22L20.34,11.95L20.34,11.95z M20.56,5.84h2.42v2.33h-2.42
			V5.84z"/>
		<path class="st1" d="M28.86,8.97c1.75,0,2.48,1,2.48,1h0.03c0,0,0-0.05,0-0.12c0-0.23,0.27-0.68,0.92-0.68h2.6v2.42h-0.6
			c-0.22,0-0.37,0.12-0.37,0.32v5.07c0,3.13-2.5,4.28-4.85,4.28c-1.15,0-2.42-0.33-3.25-0.77l0.83-2.25c0,0,1.05,0.55,2.4,0.55
			c1.04,0,1.98-0.38,1.98-1.65V17c0-0.1,0.02-0.32,0.02-0.32h-0.03c-0.5,0.55-1.15,0.82-2.15,0.82c-2.58,0-3.87-2.12-3.87-4.32
			C25.01,11,26.26,8.97,28.86,8.97z M31.1,13.22c0-1.52-0.8-1.85-1.67-1.85c-1.02,0-1.53,0.73-1.53,1.72c0,1.07,0.5,2.02,1.65,2.02
			C30.31,15.1,31.1,14.71,31.1,13.22z"/>
		<path class="st1" d="M36.46,8.62c0-0.23-0.13-0.37-0.37-0.37h-0.63V5.84h2.67c0.85,0,1.22,0.37,1.22,1.22v2.55
			c0,0.43-0.03,0.73-0.03,0.73h0.03c0.48-0.85,1.49-1.36,2.62-1.36c1.74,0,3.08,0.8,3.08,3.21v2.78c0,0.23,0.13,0.37,0.37,0.37h0.63
			v2.42h-2.67c-0.85,0-1.22-0.37-1.22-1.22v-3.82c0-0.8-0.32-1.13-0.95-1.13c-0.88,0-1.47,0.52-1.72,1.27
			c-0.12,0.33-0.15,0.7-0.15,1.1v3.8h-2.88C36.46,17.75,36.46,8.62,36.46,8.62z"/>
		<path class="st1" d="M47.63,11.55h-1.1V9.17h1.18V6.85h2.8v2.31h1.46v2.38h-1.46v2.65c0,0.97,0.98,1.1,1.53,1.1
			c0.23,0,0.38-0.02,0.38-0.02v2.5c0,0-0.32,0.05-0.79,0.05c-1.36,0-4.01-0.37-4.01-3.25V11.55z"/>
		<path class="st1" d="M54.91,18.85c0.47,0,1-0.13,1.28-0.85l0.1-0.25l-2.72-5.9c-0.1-0.22-0.16-0.27-0.37-0.27H52.9V9.17H55
			c0.48,0,0.83,0.25,1,0.7l1.27,3.46c0.16,0.47,0.32,1.33,0.32,1.33h0.03c0,0,0.15-0.86,0.29-1.33l0.95-3.46
			c0.12-0.45,0.57-0.7,1.02-0.7h2.15v2.42h-0.32c-0.2,0-0.32,0.05-0.4,0.27l-2.6,6.81c-0.73,1.9-2.22,2.58-3.58,2.58
			c-1.49,0-2.42-0.92-2.42-0.92l1.04-2.03C53.73,18.3,54.23,18.85,54.91,18.85z"/>
	</g>
	<g>
		<path class="st1" d="M62.56,11.85c-0.07-0.18-0.16-0.27-0.37-0.27h-0.22V9.17h1.83c0.61,0,1.02,0.25,1.17,0.7l1.3,3.87
			c0.18,0.55,0.32,1.38,0.32,1.38h0.03c0,0,0.13-0.83,0.32-1.38l1.28-3.87c0.15-0.45,0.58-0.7,1.18-0.7h1.68v2.42h-0.22
			c-0.2,0-0.33,0.09-0.4,0.27l-2.18,5.9h-3.51L62.56,11.85z"/>
		<path class="st1" d="M75.97,8.97c2.53,0,3.96,1.77,3.96,4.15c0,0.29-0.07,0.86-0.07,0.86h-5.41c0.22,1.08,1.08,1.56,2,1.56
			c1.24,0,2.28-0.9,2.28-0.9l1.15,1.93c0,0-1.38,1.36-3.67,1.36c-3.07,0-4.71-2.22-4.71-4.5C71.51,10.93,73.21,8.97,75.97,8.97z
			 M76.99,12.23c0-0.54-0.41-1.1-1.02-1.1c-0.83,0-1.25,0.47-1.43,1.1H76.99z"/>
		<path class="st1" d="M81.81,11.95c0-0.23-0.13-0.37-0.37-0.37h-0.63V9.17h2.55c0.79,0,1.22,0.32,1.22,1.1v0.45
			c0,0.27-0.03,0.43-0.03,0.43h0.03c0.37-1.17,1.45-2.13,2.73-2.13c0.16,0,0.33,0.03,0.33,0.03v2.83c0,0-0.23-0.05-0.58-0.05
			c-0.68,0-1.8,0.22-2.22,1.5c-0.1,0.32-0.15,0.7-0.15,1.17v3.25h-2.88L81.81,11.95L81.81,11.95z"/>
		<path class="st1" d="M89.64,14.53c0,0,1.2,1.23,2.51,1.23c0.41,0,0.65-0.12,0.65-0.41c0-0.72-4.3-0.95-4.3-3.73
			c0-1.85,1.72-2.65,3.53-2.65c1.4,0,3.33,0.4,3.33,1.95v1.02h-2.5v-0.41c0-0.23-0.37-0.4-0.79-0.4c-0.4,0-0.77,0.13-0.77,0.4
			c0,0.88,4.35,0.77,4.35,3.65c0,1.74-1.52,2.78-3.51,2.78c-2.47,0-3.8-1.56-3.8-1.56L89.64,14.53z"/>
	</g>
</g>
</svg>
