<?xml version="1.0" encoding="utf-8"?>
<!-- Generator: Adobe Illustrator 23.0.1, SVG Export Plug-In . SVG Version: 6.00 Build 0)  -->
<svg version="1.1" id="Layer_1" xmlns="http://www.w3.org/2000/svg" xmlns:xlink="http://www.w3.org/1999/xlink" x="0px" y="0px"
	 viewBox="0 0 206.94 50" style="enable-background:new 0 0 206.94 50;" xml:space="preserve">
<style type="text/css">
	.st0{fill:none;}
	.st1{fill:#1E2324;}
	.st2{fill:#FFFFFF;}
	.st3{fill:#BFFCB1;}
	.st4{fill:#999999;}
	.st5{fill:#F6BC47;}
</style>
<rect class="st0" width="206.94" height="50.19"/>
<g>
	<path class="st5" d="M121.7,25.07c-0.1-0.27-0.24-0.38-0.53-0.38h-0.31v-3.49h2.66c0.89,0,1.47,0.37,1.68,1.01l1.89,5.6
		c0.27,0.8,0.46,2,0.46,2h0.05c0,0,0.19-1.2,0.46-2l1.86-5.6c0.22-0.65,0.85-1.01,1.71-1.01h2.43v3.49h-0.32
		c-0.29,0-0.48,0.13-0.58,0.38l-3.16,8.53h-5.09L121.7,25.07z"/>
	<path class="st5" d="M141.11,20.9c3.67,0,5.74,2.56,5.74,6c0,0.41-0.1,1.25-0.1,1.25h-7.84c0.32,1.57,1.57,2.27,2.9,2.27
		c1.79,0,3.3-1.3,3.3-1.3l1.66,2.8c0,0-2,1.98-5.3,1.98c-4.43,0-6.82-3.2-6.82-6.51C134.64,23.74,137.11,20.9,141.11,20.9z
		 M142.58,25.63c0-0.77-0.61-1.59-1.47-1.59c-1.2,0-1.81,0.67-2.08,1.59H142.58z"/>
	<path class="st5" d="M149.55,25.22c0-0.34-0.19-0.53-0.53-0.53h-0.91v-3.49h3.69c1.14,0,1.76,0.46,1.76,1.59v0.65
		c0,0.38-0.05,0.63-0.05,0.63h0.05c0.53-1.68,2.1-3.09,3.95-3.09c0.24,0,0.48,0.05,0.48,0.05v4.1c0,0-0.34-0.08-0.85-0.08
		c-0.99,0-2.61,0.32-3.2,2.17c-0.14,0.46-0.22,1.01-0.22,1.68v4.7h-4.18L149.55,25.22L149.55,25.22z"/>
	<path class="st5" d="M160.88,28.96c0,0,1.74,1.78,3.65,1.78c0.61,0,0.94-0.17,0.94-0.61c0-1.04-6.22-1.38-6.22-5.4
		c0-2.67,2.48-3.84,5.11-3.84c2.03,0,4.82,0.58,4.82,2.82v1.47h-3.62v-0.61c0-0.34-0.53-0.58-1.14-0.58c-0.58,0-1.11,0.19-1.11,0.58
		c0,1.28,6.29,1.11,6.29,5.28c0,2.51-2.19,4.03-5.09,4.03c-3.57,0-5.5-2.27-5.5-2.27L160.88,28.96z"/>
</g>
<g>
	<path class="st1" d="M60.6,25.22c0-0.34-0.19-0.53-0.53-0.53h-0.91v-3.49h3.86c1.23,0,1.76,0.53,1.76,1.76v6.63
		c0,0.34,0.19,0.53,0.53,0.53h0.91v3.49h-3.86c-1.23,0-1.76-0.53-1.76-1.76V25.22z M60.91,16.36h3.49v3.38h-3.49L60.91,16.36z"/>
	<path class="st1" d="M72.92,20.91c2.53,0,3.59,1.44,3.59,1.44h0.05c0,0,0-0.08,0-0.17c0-0.34,0.38-0.99,1.33-0.99h3.76v3.49h-0.87
		c-0.32,0-0.53,0.17-0.53,0.46v7.33c0,4.53-3.62,6.2-7.01,6.2c-1.66,0-3.49-0.48-4.7-1.11l1.2-3.25c0,0,1.52,0.8,3.47,0.8
		c1.49,0,2.87-0.56,2.87-2.39v-0.19c0-0.14,0.02-0.46,0.02-0.46h-0.05c-0.72,0.8-1.66,1.18-3.11,1.18c-3.74,0-5.6-3.06-5.6-6.24
		C67.35,23.85,69.16,20.91,72.92,20.91z M76.17,27.05c0-2.19-1.15-2.67-2.41-2.67c-1.47,0-2.22,1.06-2.22,2.48
		c0,1.54,0.72,2.91,2.39,2.91C75.02,29.78,76.17,29.22,76.17,27.05z"/>
	<path class="st1" d="M83.92,20.4c0-0.34-0.19-0.53-0.53-0.53h-0.91v-3.5h3.86c1.23,0,1.76,0.53,1.76,1.76v3.69
		c0,0.63-0.05,1.06-0.05,1.06h0.05c0.7-1.23,2.15-1.98,3.79-1.98c2.51,0,4.46,1.15,4.46,4.66v4.03c0,0.34,0.19,0.53,0.53,0.53h0.91
		v3.49h-3.87c-1.23,0-1.76-0.53-1.76-1.76v-5.52c0-1.15-0.46-1.64-1.38-1.64c-1.28,0-2.13,0.75-2.48,1.84
		c-0.17,0.48-0.22,1.01-0.22,1.59v5.49h-4.17V20.4z"/>
	<path class="st1" d="M100.09,24.64H98.5v-3.44h1.71v-3.36h4.05v3.35h2.11v3.44h-2.11v3.84c0,1.39,1.42,1.59,2.22,1.59
		c0.34,0,0.56-0.02,0.56-0.02v3.62c0,0-0.46,0.08-1.14,0.08c-1.98,0-5.81-0.53-5.81-4.7L100.09,24.64L100.09,24.64z"/>
	<path class="st1" d="M110.63,35.2c0.67,0,1.44-0.19,1.86-1.23l0.14-0.37l-3.93-8.53c-0.14-0.32-0.24-0.38-0.53-0.38h-0.46v-3.49
		h3.04c0.7,0,1.2,0.37,1.44,1.01l1.84,5.01c0.24,0.67,0.46,1.93,0.46,1.93h0.05c0,0,0.22-1.25,0.41-1.93l1.38-5.01
		c0.17-0.65,0.82-1.01,1.47-1.01h3.11v3.49h-0.46c-0.29,0-0.46,0.08-0.58,0.38l-3.76,9.86c-1.06,2.75-3.2,3.74-5.19,3.74
		c-2.15,0-3.49-1.33-3.49-1.33l1.49-2.94C108.92,34.4,109.64,35.2,110.63,35.2z"/>
</g>
<path class="st1" d="M57.38,29.59c-0.33,0-0.49-0.19-0.52-0.52l-1.03-12.75h-3.88l-3.06,6.65c-0.42,1.06-0.98,2.4-0.98,2.4h-0.05
	c0,0-0.42-1.37-0.85-2.41l-2.67-6.63l-4.37-0.01l-1.06,12.77c-0.02,0.33-0.19,0.52-0.52,0.52h-0.59v3.52h3.47
	c1.2,0,1.62-0.52,1.71-1.71l0.36-5.12l2.67,6.3h3.59l2.77-6.47l0.37,5.3c0.1,1.2,0.52,1.71,1.71,1.71h3.47v-3.52h-0.56V29.59z
	 M52.2,23.97l-3.19,7.66h-2.3L43.6,24.1l-2.55-6.44l1.82,0.05c0.84,0,1.14,0.45,1.49,1.46l1.92,4.99l1.56,4.31l1.76-4.28l2.25-5.02
	c0.37-1.02,0.64-1.45,1.47-1.45l1.42-0.04L52.2,23.97z"/>
</svg>
